# AST/ASF file generated using VICON BodyLanguage
# -----------------------------------------------
:version 1.10
:name VICON
:units
  mass 1.0
  length 0.45
  angle deg
:documentation
   .ast/.asf automatically generated from VICON data using
   VICON BodyBuilder and BodyLanguage model FoxedUp or BRILLIANT.MOD
:root
   order TX TY TZ RX RY RZ
   axis XYZ
   position 0 0 0  
   orientation 0 0 0 
:bonedata
  begin
     id 1 
     name lhipjoint
     direction 0.627457 -0.725269 0.283342 
     length 2.53237 
     axis 0 0 0  XYZ
  end
  begin
     id 2 
     name lfemur
     direction 0.34202 -0.939693 0  
     length 7.32496  
     axis 0 0 20  XYZ
    dof rx ry rz
    limits (-160.0 20.0)
           (-70.0 70.0)
           (-60.0 70.0)
  end
  begin
     id 3 
     name ltibia
     direction 0.34202 -0.939693 0   
     length 7.69674   
     axis 0 0 20   XYZ
    dof rx
    limits (-10.0 170.0)
  end
  begin
     id 4 
     name lfoot
     direction 0.127289 -0.349722 0.928166   
     length 1.8612   
     axis -90 7.62852e-016 20   XYZ
    dof rx rz
    limits (-45.0 90.0)
           (-70.0 20.0)
  end
  begin
     id 5 
     name ltoes
     direction 1.53561e-011 -4.21864e-011 1   
     length 0.925608   
     axis -90 7.62852e-016 20   XYZ
    dof rx
    limits (-90.0 20.0)
  end
  begin
     id 6 
     name rhipjoint
     direction -0.609094 -0.738725 0.288599   
     length 2.48624  
     axis 0 0 0  XYZ 
  end
  begin
     id 7 
     name rfemur
     direction -0.34202 -0.939693 0   
     length 7.44259   
     axis 0 0 -20   XYZ
    dof rx ry rz
    limits (-160.0 20.0)
           (-70.0 70.0)
           (-70.0 60.0)
  end
  begin
     id 8 
     name rtibia
     direction -0.34202 -0.939693 0   
     length 7.7781   
     axis 0 0 -20   XYZ
    dof rx
    limits (-10.0 170.0)
 end
 begin
     id 9 
     name rfoot
     direction -0.107015 -0.294021 0.949789   
     length 2.14741  
     axis -90 -7.62852e-016 -20   XYZ
    dof rx rz
    limits (-45.0 90.0)
           (-20.0 70.0)
  end
  begin
     id 10 
     name rtoes
     direction -1.53497e-011 -4.21924e-011 1   
     length 1.0706   
     axis -90 -7.62852e-016 -20   XYZ
    dof rx
    limits (-90.0 20.0)
  end
  begin
     id 11 
     name lowerback
     direction -0.0142066 0.998112 -0.0597545   
     length 1.86627   
     axis 0 0 0   XYZ
    dof rx ry rz
    limits (-20.0 45.0)
           (-30.0 30.0)
           (-30.0 30.0)
  end
  begin
     id 12 
     name upperback
     direction 0.00547294 0.999744 0.0219437   
     length 1.86272   
     axis 0 0 0   XYZ
    dof rx ry rz
    limits (-20.0 45.0)
           (-30.0 30.0)
           (-30.0 30.0)
  end
  begin
     id 13 
     name thorax
     direction 0.0116162 0.998704 0.0495538   
     length 1.8703   
     axis 0 0 0   XYZ
    dof rx ry rz
    limits (-20.0 45.0)
           (-30.0 30.0)
           (-30.0 30.0)
  end
  begin
     id 14 
     name lowerneck
     direction -0.0106574 0.998739 0.0490586   
     length 1.8074   
     axis 0 0 0   XYZ
    dof rx ry rz
    limits (-20.0 45.0)
           (-30.0 30.0)
           (-30.0 30.0)
  end
  begin
     id 15 
     name upperneck
     direction 0.030527 0.976587 -0.212944   
     length 1.80681   
     axis 0 0 0   XYZ
    dof rx ry rz
    limits (-20.0 45.0)
           (-30.0 30.0)
           (-30.0 30.0)
  end
  begin
     id 16
     name head
     direction 0.00869225 0.997035 -0.0764531  
     length 1.8313  
     axis 0 0 0   XYZ
    dof rx ry rz
    limits (-20.0 45.0)
           (-30.0 30.0)
           (-30.0 30.0)
  end
  begin
     id 17 
     name lclavicle
     direction 0.915958 0.399447 0.0382386  
     length 3.78965  
     axis 0 0 0   XYZ
    dof ry rz
    limits (-20.0 10.0)
           (0.0 20.0)
  end
  begin
     id 18 
     name lhumerus
     direction 1 -4.48967e-011 3.19303e-027   
     length 4.78095   
     axis -180 -30 -90   XYZ
    dof rx ry rz
    limits (-60.0 90.0)
           (-90.0 90.0)
           (-90.0 90.0)
  end
  begin
     id 19
     name lradius
     direction 1 -4.48967e-011 -3.77974e-027   
     length 3.58615   
     axis -180 -30 -90   XYZ
    dof rx
    limits (-10.0 170.0)
  end
  begin
     id 20
     name lwrist
     direction 1 -4.48927e-011 1.2807e-027   
     length 1.79307   
     axis 1.91374e-015 90 90   XYZ
    dof ry
    limits (-180.0 0.0)
 end
  begin
     id 21 
     name lhand
     direction 1 -4.49036e-011 2.5614e-027   
     length 0.659812   
     axis -1.63439e-015 90 90   XYZ
    dof rx rz
    limits (-90.0 90.0)
           (-45.0 45.0)
  end
  begin
     id 22 
     name lfingers
     direction 1 -4.49052e-011 5.1228e-027   
     length 0.531957   
     axis -3.26879e-015 90 90   XYZ
    dof rx
    limits (0.0 90.0)
  end
  begin
     id 23
     name lthumb
     direction 0.707107 -6.35012e-011 0.707107   
     length 0.763787   
     axis -90 45 2.85299e-015   XYZ
    dof rx rz
    limits (-45.0 45.0)
           (-45.0 45.0)
  end
  begin
     id 24 
     name rclavicle
     direction -0.895351 0.435135 0.0948887   
     length 3.70497  
     axis 0 0 0   XYZ 
    dof ry rz
    limits (-10.0 20.0)
           (-20.0 0.0)
  end
  begin
     id 25 
     name rhumerus
     direction -1 -4.48971e-011 2.38946e-027  
     length 4.48913   
     axis -180 30 90   XYZ
    dof rx ry rz
    limits (-90.0 60.0)
           (-90.0 90.0)
           (-90.0 90.0)
  end
  begin
     id 26 
     name rradius
     direction -1 -4.4895e-011 4.38668e-027   
     length 3.7051   
     axis -180 30 90   XYZ
    dof rx
    limits (-10.0 170.0)
  end
  begin
     id 27 
     name rwrist
     direction -1 -4.49007e-011 1.2807e-027   
     length 1.85255   
     axis 1.91374e-015 -90 -90   XYZ
    dof ry
    limits (-180.0 0.0)
  end
  begin
     id 28
     name rhand
     direction -1 -4.48851e-011 2.5614e-027   
     length 0.449136   
     axis -1.63439e-015 -90 -90   XYZ
    dof rx rz
    limits (-90.0 90.0)
           (-45.0 45.0)
  end
  begin
     id 29
     name rfingers
     direction -1 -4.49128e-011 5.1228e-027   
     length 0.362105   
     axis -3.26879e-015 -90 -90   XYZ
    dof rx
    limits (0.0 90.0)
  end
  begin
     id 30
     name rthumb
     direction -0.707107 -6.34851e-011 0.707107   
     length 0.519912   
     axis -90 -45 -2.85299e-015   XYZ
    dof rx rz
    limits (-45.0 45.0)
           (-45.0 45.0)
  end
:hierarchy
  begin
    root lhipjoint rhipjoint lowerback
    lhipjoint lfemur
    lfemur ltibia
    ltibia lfoot
    lfoot ltoes
    rhipjoint rfemur
    rfemur rtibia
    rtibia rfoot
    rfoot rtoes
    lowerback upperback
    upperback thorax
    thorax lowerneck lclavicle rclavicle
    lowerneck upperneck
    upperneck head
    lclavicle lhumerus
    lhumerus lradius
    lradius lwrist
    lwrist lhand lthumb
    lhand lfingers
    rclavicle rhumerus
    rhumerus rradius
    rradius rwrist
    rwrist rhand rthumb
    rhand rfingers
  end

#!OML:ASF I:\Actors\actors\Patient Classification 2\Patient 1\Session 1\actor1.ASF
:FULLY-SPECIFIED
:DEGREES
1
root -0.658231 18.6754 5.79826 2.34161 -3.38954 -1.72285
lowerback 0.646804 1.45507 -0.071314
upperback -1.71924 1.93724 -0.14736
thorax -2.12104 0.96742 -0.159121
lowerneck -11.757 -2.52566 -0.543908
upperneck 25.101 -4.17413 2.72057
head 9.97781 -1.67855 0.543916
rclavicle 1.02219e-014 -4.37326e-015
rhumerus -49.8614 -2.96242 -86.886
rradius 44.0857
rwrist 12.7287
rhand -10.7303 -30.0439
rfingers 7.12502
rthumb 15.2803 -59.4595
lclavicle 1.02219e-014 -4.37326e-015
lhumerus -40.4307 0.718939 89.8967
lradius 36.3574
lwrist -11.2134
lhand -3.60502 -26.7782
lfingers 7.12502
lthumb 22.1332 1.97491
rfemur 0 0 0
rtibia 0
rfoot 0 0
rtoes 0
lfemur -3.19116 -6.51966 -13.0723
ltibia 20.7101
lfoot -26.2155 18.4636
ltoes -53.8153
2
root -0.660004 18.6758 5.79429 2.38947 -3.35259 -1.75232
lowerback 0.637224 1.45531 -0.0594839
upperback -1.74414 1.93795 -0.138345
thorax -2.14114 0.967642 -0.156686
lowerneck -11.7417 -2.53858 -0.530813
upperneck 25.1191 -4.19461 2.71543
head 9.98138 -1.68724 0.537616
rclavicle 2.27391e-014 -1.27222e-014
rhumerus -49.9062 -3.02236 -86.8547
rradius 44.1307
rwrist 12.7783
rhand -10.7699 -30.0156
rfingers 7.12502
rthumb 15.2422 -59.434
lclavicle 2.27391e-014 -1.27222e-014
lhumerus -40.4029 0.851756 89.8464
lradius 36.31
lwrist -11.3639
lhand -3.57437 -26.836
lfingers 7.12502
lthumb 22.1626 1.91365
rfemur 0 0 0
rtibia 0
rfoot 0 0
rtoes 0
lfemur -3.27388 -6.53424 -13.0198
ltibia 20.7248
lfoot -26.2361 18.4436
ltoes -53.7455
3
root -0.660843 18.6761 5.79276 2.41241 -3.36048 -1.76252
lowerback 0.602348 1.47047 -0.0557934
upperback -1.74557 1.9583 -0.137152
thorax -2.1229 0.977788 -0.157051
lowerneck -11.7292 -2.54878 -0.505387
upperneck 25.1173 -4.20886 2.69388
head 9.97751 -1.69401 0.524231
rclavicle -4.29344e-014 1.23246e-014
rhumerus -49.9224 -3.07163 -86.8341
rradius 44.1379
rwrist 12.8178
rhand -11.4849 -30.0537
rfingers 7.12502
rthumb 14.5533 -59.5232
lclavicle -4.29344e-014 1.23246e-014
lhumerus -40.3657 0.875687 89.8372
lradius 36.2546
lwrist -11.3809
lhand -3.61943 -26.8749
lfingers 7.12502
lthumb 22.1194 1.87983
rfemur 0 0 0
rtibia 0
rfoot 0 0
rtoes 0
lfemur -3.30927 -6.52476 -13.0031
ltibia 20.7283
lfoot -26.2252 18.4458
ltoes -53.7756
4
root -0.660446 18.6767 5.79118 2.41047 -3.37656 -1.77413
lowerback 0.59208 1.47845 -0.0278164
upperback -1.74415 1.96932 -0.142928
thorax -2.11451 0.982777 -0.178538
lowerneck -11.7112 -2.54336 -0.491862
upperneck 25.1234 -4.20504 2.69658
head 9.97596 -1.69077 0.523597
rclavicle -9.74045e-015 -6.36111e-015
rhumerus -49.9303 -3.07753 -86.8524
rradius 44.1399
rwrist 12.7851
rhand -12.7816 -30.2563
rfingers 7.12502
rthumb 13.3038 -59.8116
lclavicle -9.74045e-015 -6.36111e-015
lhumerus -40.3748 0.853275 89.8356
lradius 36.2457
lwrist -11.3301
lhand -3.63707 -26.8298
lfingers 7.12502
lthumb 22.1024 1.92697
rfemur 0 0 0
rtibia 0
rfoot 0 0
rtoes 0
lfemur -3.31031 -6.56881 -12.9964
ltibia 20.7356
lfoot -26.2335 18.4652
ltoes -53.7895
5
root -0.660133 18.6775 5.7882 2.41292 -3.36709 -1.78012
lowerback 0.621206 1.47518 -0.00337737
upperback -1.7621 1.96515 -0.153507
thorax -2.14814 0.980132 -0.204086
lowerneck -11.7171 -2.5413 -0.504896
upperneck 25.1815 -4.20721 2.71796
head 9.9989 -1.68966 0.532847
rclavicle 4.27946e-014 5.96354e-015
rhumerus -49.9528 -3.09392 -86.8762
rradius 44.1506
rwrist 12.7183
rhand -13.5166 -30.3477
rfingers 7.12502
rthumb 12.5951 -59.948
lclavicle 4.27946e-014 5.96354e-015
lhumerus -40.4388 0.766397 89.8675
lradius 36.4136
lwrist -11.4777
lhand -3.47465 -26.3194
lfingers 7.12502
lthumb 22.2584 2.41881
rfemur 0 0 0
rtibia 0
rfoot 0 0
rtoes 0
lfemur -3.32444 -6.56474 -12.9852
ltibia 20.7351
lfoot -26.1901 18.4672
ltoes -53.8864
6
root -0.660023 18.677 5.78605 2.41107 -3.36153 -1.77066
lowerback 0.650713 1.47758 -0.00528742
upperback -1.77094 1.96817 -0.161312
thorax -2.17358 0.981552 -0.212099
lowerneck -11.8117 -2.53982 -0.570846
upperneck 25.3189 -4.21276 2.78055
head 10.07 -1.68812 0.563804
rclavicle -2.70285e-014 3.18055e-015
rhumerus -49.9667 -3.1451 -86.878
rradius 44.1596
rwrist 12.6772
rhand -13.7631 -30.1905
rfingers 7.12502
rthumb 12.3575 -59.8052
lclavicle -2.70285e-014 3.18055e-015
lhumerus -40.5071 0.627012 89.9433
lradius 36.7356
lwrist -11.8542
lhand -3.15633 -25.3518
lfingers 7.12502
lthumb 22.5639 3.34961
rfemur 0 0 0
rtibia 0
rfoot 0 0
rtoes 0
lfemur -3.33483 -6.52719 -12.9921
ltibia 20.734
lfoot -26.1688 18.4761
ltoes -53.9095
7
root -0.660261 18.6763 5.78476 2.40421 -3.35193 -1.76188
lowerback 0.660145 1.47495 -0.0128868
upperback -1.76357 1.96442 -0.166125
thorax -2.17141 0.979767 -0.212826
lowerneck -11.8893 -2.53133 -0.621466
upperneck 25.408 -4.21002 2.84405
head 10.1199 -1.68211 0.593877
rclavicle 5.41067e-015 -5.96354e-015
rhumerus -49.9638 -3.15731 -86.9041
rradius 44.1552
rwrist 12.6721
rhand -13.1853 -29.9946
rfingers 7.12502
rthumb 12.9145 -59.5749
lclavicle 5.41067e-015 -5.96354e-015
lhumerus -40.5407 0.571177 89.9626
lradius 36.9073
lwrist -12.0895
lhand -2.93001 -24.9341
lfingers 7.12502
lthumb 22.7811 3.74075
rfemur 0 0 0
rtibia 0
rfoot 0 0
rtoes 0
lfemur -3.33957 -6.52515 -12.9983
ltibia 20.7334
lfoot -26.208 18.4794
ltoes -53.7901
8
root -0.660964 18.6766 5.78334 2.40038 -3.32473 -1.73981
lowerback 0.641974 1.46405 -0.0465598
upperback -1.74438 1.94926 -0.168834
thorax -2.14255 0.972792 -0.195537
lowerneck -11.862 -2.5413 -0.5907
upperneck 25.3711 -4.22391 2.82266
head 10.1003 -1.68894 0.57984
rclavicle -4.01607e-015 1.59028e-015
rhumerus -49.9322 -3.13165 -86.9436
rradius 44.126
rwrist 12.715
rhand -11.6357 -29.914
rfingers 7.12502
rthumb 14.4081 -59.3939
lclavicle -4.01607e-015 1.59028e-015
lhumerus -40.5267 0.606125 89.935
lradius 36.8895
lwrist -12.1525
lhand -2.87192 -25.1012
lfingers 7.12502
lthumb 22.8369 3.5668
rfemur 0 0 0
rtibia 0
rfoot 0 0
rtoes 0
lfemur -3.34988 -6.53184 -13.0142
ltibia 20.7335
lfoot -26.1914 18.455
ltoes -53.7756
9
root -0.661627 18.6774 5.78171 2.41414 -3.30343 -1.72868
lowerback 0.610571 1.45703 -0.084646
upperback -1.72982 1.93953 -0.155433
thorax -2.1117 0.968741 -0.159141
lowerneck -11.8075 -2.56017 -0.496492
upperneck 25.3044 -4.23177 2.6818
head 10.0601 -1.7014 0.514333
rclavicle -1.2629e-014 5.56597e-015
rhumerus -49.896 -3.1026 -86.9606
rradius 44.123
rwrist 12.7265
rhand -10.7289 -29.9101
rfingers 7.12502
rthumb 15.2816 -59.3256
lclavicle -1.2629e-014 5.56597e-015
lhumerus -40.4946 0.639151 89.9477
lradius 36.8388
lwrist -12.165
lhand -2.92127 -25.1658
lfingers 7.12502
lthumb 22.7895 3.50804
rfemur 0 0 0
rtibia 0
rfoot 0 0
rtoes 0
lfemur -3.37994 -6.53563 -13.0175
ltibia 20.743
lfoot -26.1244 18.4493
ltoes -53.8449
